%TF.GenerationSoftware,KiCad,Pcbnew,10.0.0*%
%TF.CreationDate,2026-07-01T11:34:51+05:30*%
%TF.ProjectId,Automatic night lamp,4175746f-6d61-4746-9963-206e69676874,rev?*%
%TF.SameCoordinates,Original*%
%TF.FileFunction,Copper,L1,Top*%
%TF.FilePolarity,Positive*%
%FSLAX46Y46*%
G04 Gerber Fmt 4.6, Leading zero omitted, Abs format (unit mm)*
G04 Created by KiCad (PCBNEW 10.0.0) date 2026-07-01 11:34:51*
%MOMM*%
%LPD*%
G01*
G04 APERTURE LIST*
G04 Aperture macros list*
%AMRoundRect*
0 Rectangle with rounded corners*
0 $1 Rounding radius*
0 $2 $3 $4 $5 $6 $7 $8 $9 X,Y pos of 4 corners*
0 Add a 4 corners polygon primitive as box body*
4,1,4,$2,$3,$4,$5,$6,$7,$8,$9,$2,$3,0*
0 Add four circle primitives for the rounded corners*
1,1,$1+$1,$2,$3*
1,1,$1+$1,$4,$5*
1,1,$1+$1,$6,$7*
1,1,$1+$1,$8,$9*
0 Add four rect primitives between the rounded corners*
20,1,$1+$1,$2,$3,$4,$5,0*
20,1,$1+$1,$4,$5,$6,$7,0*
20,1,$1+$1,$6,$7,$8,$9,0*
20,1,$1+$1,$8,$9,$2,$3,0*%
G04 Aperture macros list end*
%TA.AperFunction,ComponentPad*%
%ADD10C,1.400000*%
%TD*%
%TA.AperFunction,ComponentPad*%
%ADD11O,1.050000X1.500000*%
%TD*%
%TA.AperFunction,ComponentPad*%
%ADD12R,1.050000X1.500000*%
%TD*%
%TA.AperFunction,ComponentPad*%
%ADD13RoundRect,0.250000X-0.550000X-0.550000X0.550000X-0.550000X0.550000X0.550000X-0.550000X0.550000X0*%
%TD*%
%TA.AperFunction,ComponentPad*%
%ADD14C,1.600000*%
%TD*%
%TA.AperFunction,ComponentPad*%
%ADD15R,1.800000X1.800000*%
%TD*%
%TA.AperFunction,ComponentPad*%
%ADD16C,1.800000*%
%TD*%
%TA.AperFunction,ComponentPad*%
%ADD17C,1.500000*%
%TD*%
%TA.AperFunction,ComponentPad*%
%ADD18RoundRect,0.750000X-1.250000X-0.750000X1.250000X-0.750000X1.250000X0.750000X-1.250000X0.750000X0*%
%TD*%
%TA.AperFunction,Conductor*%
%ADD19C,0.200000*%
%TD*%
G04 APERTURE END LIST*
D10*
%TO.P,R4,1*%
%TO.N,+5V*%
X138690000Y-89650000D03*
%TO.P,R4,2*%
%TO.N,Net-(D1-A)*%
X146310000Y-89650000D03*
%TD*%
D11*
%TO.P,Q1,3,E_3*%
%TO.N,GND*%
X135770000Y-89360000D03*
%TO.P,Q1,2,B_2*%
%TO.N,Net-(Q1-B)*%
X134500000Y-89360000D03*
D12*
%TO.P,Q1,1,C_1*%
%TO.N,Net-(D1-K)*%
X133230000Y-89360000D03*
%TD*%
D13*
%TO.P,U1,1*%
%TO.N,Net-(R3-Pad1)*%
X135695000Y-73690000D03*
D14*
%TO.P,U1,2,-_2*%
%TO.N,Net-(U1A--)*%
X135695000Y-76230000D03*
%TO.P,U1,3,+_3*%
%TO.N,Net-(U1A-+)*%
X135695000Y-78770000D03*
%TO.P,U1,4,V-_4*%
%TO.N,GND*%
X135695000Y-81310000D03*
%TO.P,U1,5*%
%TO.N,N/C*%
X143315000Y-81310000D03*
%TO.P,U1,6*%
X143315000Y-78770000D03*
%TO.P,U1,7*%
X143315000Y-76230000D03*
%TO.P,U1,8,V+_8*%
%TO.N,+5V*%
X143315000Y-73690000D03*
%TD*%
D10*
%TO.P,R1,1*%
%TO.N,Net-(U1A--)*%
X125690000Y-79000000D03*
%TO.P,R1,2*%
%TO.N,GND*%
X133310000Y-79000000D03*
%TD*%
D15*
%TO.P,D1,1,K_1*%
%TO.N,Net-(D1-K)*%
X149730000Y-88500000D03*
D16*
%TO.P,D1,2,A_2*%
%TO.N,Net-(D1-A)*%
X152270000Y-88500000D03*
%TD*%
D10*
%TO.P,R5,1*%
%TO.N,Net-(U1A-+)*%
X125690000Y-83500000D03*
%TO.P,R5,2*%
%TO.N,Net-(R3-Pad1)*%
X133310000Y-83500000D03*
%TD*%
D17*
%TO.P,R6,1*%
%TO.N,+5V*%
X122300000Y-73000000D03*
%TO.P,R6,2*%
%TO.N,Net-(U1A--)*%
X125700000Y-73000000D03*
%TD*%
D15*
%TO.P,R7,1,1_1*%
%TO.N,+5V*%
X146450000Y-74500000D03*
D16*
%TO.P,R7,2,2_2*%
%TO.N,Net-(U1A-+)*%
X146450000Y-77000000D03*
%TO.P,R7,3,3_3*%
%TO.N,GND*%
X146450000Y-79500000D03*
D18*
%TO.P,R7,MP*%
%TO.N,N/C*%
X153450000Y-72600000D03*
X153450000Y-81400000D03*
%TD*%
D10*
%TO.P,R3,1*%
%TO.N,Net-(R3-Pad1)*%
X138690000Y-86500000D03*
%TO.P,R3,2*%
%TO.N,Net-(Q1-B)*%
X146310000Y-86500000D03*
%TD*%
%TO.N,GND*%
D19*
X135695000Y-89285000D02*
X135770000Y-89360000D01*
%TO.N,Net-(R3-Pad1)*%
X135690000Y-83500000D02*
X138690000Y-86500000D01*
X133310000Y-83500000D02*
X135690000Y-83500000D01*
X138690000Y-86500000D02*
X139000000Y-86500000D01*
%TO.N,Net-(U1A--)*%
X125700000Y-78990000D02*
X125690000Y-79000000D01*
%TO.N,Net-(U1A-+)*%
X146450000Y-77000000D02*
X146120000Y-77330000D01*
X126000000Y-83190000D02*
X125690000Y-83500000D01*
%TO.N,GND*%
X146450000Y-79500000D02*
X146080000Y-79870000D01*
%TO.N,+5V*%
X143315000Y-73690000D02*
X145640000Y-73690000D01*
X143315000Y-73690000D02*
X142215000Y-74790000D01*
X141575000Y-71950000D02*
X123350000Y-71950000D01*
X143315000Y-73690000D02*
X141575000Y-71950000D01*
X145640000Y-73690000D02*
X146450000Y-74500000D01*
X142215000Y-74790000D02*
X142215000Y-86125000D01*
X123350000Y-71950000D02*
X122300000Y-73000000D01*
X142215000Y-86125000D02*
X138690000Y-89650000D01*
%TO.N,Net-(D1-K)*%
X133230000Y-89481726D02*
X133230000Y-89360000D01*
X149730000Y-88500000D02*
X144875686Y-88500000D01*
X134798274Y-91050000D02*
X133230000Y-89481726D01*
X133230000Y-89360000D02*
X133230000Y-89730000D01*
X144875686Y-88500000D02*
X142325685Y-91050000D01*
X142325685Y-91050000D02*
X134798274Y-91050000D01*
%TO.N,Net-(D1-A)*%
X147010000Y-90350000D02*
X150420000Y-90350000D01*
X152270000Y-88500000D02*
X152000000Y-88500000D01*
X146310000Y-89650000D02*
X147010000Y-90350000D01*
X150420000Y-90350000D02*
X152270000Y-88500000D01*
%TO.N,Net-(Q1-B)*%
X142160000Y-90650000D02*
X135565000Y-90650000D01*
X135565000Y-90650000D02*
X134500000Y-89585000D01*
X134500000Y-89585000D02*
X134500000Y-89360000D01*
X146310000Y-86500000D02*
X142160000Y-90650000D01*
%TD*%
%TA.AperFunction,Conductor*%
%TO.N,GND*%
G36*
X161443039Y-67519685D02*
G01*
X161488794Y-67572489D01*
X161500000Y-67624000D01*
X161500000Y-93876000D01*
X161480315Y-93943039D01*
X161427511Y-93988794D01*
X161376000Y-94000000D01*
X120624000Y-94000000D01*
X120556961Y-93980315D01*
X120511206Y-93927511D01*
X120500000Y-93876000D01*
X120500000Y-83405513D01*
X124489500Y-83405513D01*
X124489500Y-83594486D01*
X124519059Y-83781118D01*
X124577454Y-83960836D01*
X124648617Y-84100500D01*
X124663240Y-84129199D01*
X124774310Y-84282073D01*
X124907927Y-84415690D01*
X125060801Y-84526760D01*
X125140347Y-84567290D01*
X125229163Y-84612545D01*
X125229165Y-84612545D01*
X125229168Y-84612547D01*
X125325497Y-84643846D01*
X125408881Y-84670940D01*
X125595514Y-84700500D01*
X125595519Y-84700500D01*
X125784486Y-84700500D01*
X125971118Y-84670940D01*
X126150832Y-84612547D01*
X126319199Y-84526760D01*
X126472073Y-84415690D01*
X126605690Y-84282073D01*
X126716760Y-84129199D01*
X126802547Y-83960832D01*
X126860940Y-83781118D01*
X126890500Y-83594486D01*
X126890500Y-83405513D01*
X132109500Y-83405513D01*
X132109500Y-83594486D01*
X132139059Y-83781118D01*
X132197454Y-83960836D01*
X132268617Y-84100500D01*
X132283240Y-84129199D01*
X132394310Y-84282073D01*
X132527927Y-84415690D01*
X132680801Y-84526760D01*
X132760347Y-84567290D01*
X132849163Y-84612545D01*
X132849165Y-84612545D01*
X132849168Y-84612547D01*
X132945497Y-84643846D01*
X133028881Y-84670940D01*
X133215514Y-84700500D01*
X133215519Y-84700500D01*
X133404486Y-84700500D01*
X133591118Y-84670940D01*
X133770832Y-84612547D01*
X133939199Y-84526760D01*
X134092073Y-84415690D01*
X134225690Y-84282073D01*
X134320475Y-84151613D01*
X134375804Y-84108949D01*
X134420792Y-84100500D01*
X135389903Y-84100500D01*
X135456942Y-84120185D01*
X135477584Y-84136819D01*
X137479933Y-86139169D01*
X137513418Y-86200492D01*
X137514725Y-86246248D01*
X137489500Y-86405513D01*
X137489500Y-86594486D01*
X137519059Y-86781118D01*
X137577454Y-86960836D01*
X137648108Y-87099501D01*
X137663240Y-87129199D01*
X137774310Y-87282073D01*
X137907927Y-87415690D01*
X138060801Y-87526760D01*
X138140347Y-87567290D01*
X138229163Y-87612545D01*
X138229165Y-87612545D01*
X138229168Y-87612547D01*
X138325497Y-87643846D01*
X138408881Y-87670940D01*
X138595514Y-87700500D01*
X138595519Y-87700500D01*
X138784486Y-87700500D01*
X138971118Y-87670940D01*
X139012269Y-87657569D01*
X139150832Y-87612547D01*
X139319199Y-87526760D01*
X139472073Y-87415690D01*
X139605690Y-87282073D01*
X139716760Y-87129199D01*
X139802547Y-86960832D01*
X139860940Y-86781118D01*
X139890500Y-86594486D01*
X139890500Y-86405513D01*
X139860940Y-86218881D01*
X139804748Y-86045942D01*
X139802547Y-86039168D01*
X139802545Y-86039165D01*
X139802545Y-86039163D01*
X139716759Y-85870800D01*
X139683412Y-85824902D01*
X139605690Y-85717927D01*
X139472073Y-85584310D01*
X139319199Y-85473240D01*
X139150836Y-85387454D01*
X138971118Y-85329059D01*
X138784486Y-85299500D01*
X138784481Y-85299500D01*
X138595519Y-85299500D01*
X138595514Y-85299500D01*
X138436248Y-85324725D01*
X138366954Y-85315770D01*
X138329169Y-85289933D01*
X136177590Y-83138355D01*
X136177588Y-83138352D01*
X136058717Y-83019481D01*
X136058716Y-83019480D01*
X135951948Y-82957838D01*
X135951947Y-82957837D01*
X135921783Y-82940422D01*
X135865881Y-82925443D01*
X135769057Y-82899499D01*
X135610943Y-82899499D01*
X135603347Y-82899499D01*
X135603331Y-82899500D01*
X134420792Y-82899500D01*
X134353753Y-82879815D01*
X134320474Y-82848386D01*
X134225690Y-82717927D01*
X134092073Y-82584310D01*
X133939199Y-82473240D01*
X133898887Y-82452700D01*
X133770836Y-82387454D01*
X133591118Y-82329059D01*
X133404486Y-82299500D01*
X133404481Y-82299500D01*
X133215519Y-82299500D01*
X133215514Y-82299500D01*
X133028881Y-82329059D01*
X132849163Y-82387454D01*
X132680800Y-82473240D01*
X132593579Y-82536610D01*
X132527927Y-82584310D01*
X132527925Y-82584312D01*
X132527924Y-82584312D01*
X132394312Y-82717924D01*
X132394312Y-82717925D01*
X132394310Y-82717927D01*
X132356751Y-82769622D01*
X132283240Y-82870800D01*
X132197454Y-83039163D01*
X132139059Y-83218881D01*
X132109500Y-83405513D01*
X126890500Y-83405513D01*
X126860940Y-83218881D01*
X126802545Y-83039163D01*
X126752234Y-82940423D01*
X126716760Y-82870801D01*
X126605690Y-82717927D01*
X126472073Y-82584310D01*
X126319199Y-82473240D01*
X126278887Y-82452700D01*
X126150836Y-82387454D01*
X125971118Y-82329059D01*
X125784486Y-82299500D01*
X125784481Y-82299500D01*
X125595519Y-82299500D01*
X125595514Y-82299500D01*
X125408881Y-82329059D01*
X125229163Y-82387454D01*
X125060800Y-82473240D01*
X124973579Y-82536610D01*
X124907927Y-82584310D01*
X124907925Y-82584312D01*
X124907924Y-82584312D01*
X124774312Y-82717924D01*
X124774312Y-82717925D01*
X124774310Y-82717927D01*
X124736751Y-82769622D01*
X124663240Y-82870800D01*
X124577454Y-83039163D01*
X124519059Y-83218881D01*
X124489500Y-83405513D01*
X120500000Y-83405513D01*
X120500000Y-78905513D01*
X124489500Y-78905513D01*
X124489500Y-79094486D01*
X124519059Y-79281118D01*
X124577454Y-79460836D01*
X124630950Y-79565826D01*
X124663240Y-79629199D01*
X124774310Y-79782073D01*
X124907927Y-79915690D01*
X125060801Y-80026760D01*
X125140347Y-80067290D01*
X125229163Y-80112545D01*
X125229165Y-80112545D01*
X125229168Y-80112547D01*
X125325497Y-80143846D01*
X125408881Y-80170940D01*
X125595514Y-80200500D01*
X125595519Y-80200500D01*
X125784486Y-80200500D01*
X125971118Y-80170940D01*
X125972623Y-80170451D01*
X126150832Y-80112547D01*
X126319199Y-80026760D01*
X126345182Y-80007882D01*
X132655669Y-80007882D01*
X132655670Y-80007883D01*
X132681059Y-80026329D01*
X132849362Y-80112085D01*
X133028997Y-80170451D01*
X133215553Y-80200000D01*
X133404447Y-80200000D01*
X133591002Y-80170451D01*
X133770637Y-80112085D01*
X133938937Y-80026331D01*
X133964328Y-80007883D01*
X133964328Y-80007882D01*
X133310001Y-79353554D01*
X133310000Y-79353554D01*
X132655669Y-80007882D01*
X126345182Y-80007882D01*
X126472073Y-79915690D01*
X126605690Y-79782073D01*
X126716760Y-79629199D01*
X126802547Y-79460832D01*
X126860940Y-79281118D01*
X126871427Y-79214905D01*
X126890500Y-79094486D01*
X126890500Y-78905552D01*
X132110000Y-78905552D01*
X132110000Y-79094447D01*
X132139548Y-79281002D01*
X132197914Y-79460637D01*
X132283666Y-79628933D01*
X132302116Y-79654328D01*
X132956446Y-79000000D01*
X132956446Y-78999999D01*
X132910369Y-78953922D01*
X132960000Y-78953922D01*
X132960000Y-79046078D01*
X132983852Y-79135095D01*
X133029930Y-79214905D01*
X133095095Y-79280070D01*
X133174905Y-79326148D01*
X133263922Y-79350000D01*
X133356078Y-79350000D01*
X133445095Y-79326148D01*
X133524905Y-79280070D01*
X133590070Y-79214905D01*
X133636148Y-79135095D01*
X133660000Y-79046078D01*
X133660000Y-78953922D01*
X133636148Y-78864905D01*
X133590070Y-78785095D01*
X133524905Y-78719930D01*
X133445095Y-78673852D01*
X133356078Y-78650000D01*
X133263922Y-78650000D01*
X133174905Y-78673852D01*
X133095095Y-78719930D01*
X133029930Y-78785095D01*
X132983852Y-78864905D01*
X132960000Y-78953922D01*
X132910369Y-78953922D01*
X132302116Y-78345669D01*
X132302116Y-78345670D01*
X132283669Y-78371060D01*
X132197914Y-78539362D01*
X132139548Y-78718997D01*
X132110000Y-78905552D01*
X126890500Y-78905552D01*
X126890500Y-78905513D01*
X126860940Y-78718881D01*
X126802545Y-78539163D01*
X126731892Y-78400500D01*
X126716760Y-78370801D01*
X126605690Y-78217927D01*
X126472073Y-78084310D01*
X126345179Y-77992116D01*
X132655669Y-77992116D01*
X133310000Y-78646446D01*
X133310001Y-78646446D01*
X133964328Y-77992116D01*
X133938933Y-77973666D01*
X133770637Y-77887914D01*
X133591002Y-77829548D01*
X133404447Y-77800000D01*
X133215553Y-77800000D01*
X133028997Y-77829548D01*
X132849362Y-77887914D01*
X132681060Y-77973669D01*
X132655670Y-77992116D01*
X132655669Y-77992116D01*
X126345179Y-77992116D01*
X126319199Y-77973240D01*
X126150836Y-77887454D01*
X125971118Y-77829059D01*
X125784486Y-77799500D01*
X125784481Y-77799500D01*
X125595519Y-77799500D01*
X125595514Y-77799500D01*
X125408881Y-77829059D01*
X125229163Y-77887454D01*
X125060800Y-77973240D01*
X124973579Y-78036610D01*
X124907927Y-78084310D01*
X124907925Y-78084312D01*
X124907924Y-78084312D01*
X124774312Y-78217924D01*
X124774312Y-78217925D01*
X124774310Y-78217927D01*
X124732755Y-78275122D01*
X124663240Y-78370800D01*
X124577454Y-78539163D01*
X124519059Y-78718881D01*
X124489500Y-78905513D01*
X120500000Y-78905513D01*
X120500000Y-72901577D01*
X121049500Y-72901577D01*
X121049500Y-73098422D01*
X121080290Y-73292826D01*
X121141117Y-73480029D01*
X121195952Y-73587648D01*
X121230476Y-73655405D01*
X121346172Y-73814646D01*
X121485354Y-73953828D01*
X121644595Y-74069524D01*
X121727455Y-74111743D01*
X121819970Y-74158882D01*
X121819972Y-74158882D01*
X121819975Y-74158884D01*
X121920317Y-74191487D01*
X122007173Y-74219709D01*
X122201578Y-74250500D01*
X122201583Y-74250500D01*
X122398422Y-74250500D01*
X122592826Y-74219709D01*
X122780025Y-74158884D01*
X122955405Y-74069524D01*
X123114646Y-73953828D01*
X123253828Y-73814646D01*
X123369524Y-73655405D01*
X123458884Y-73480025D01*
X123519709Y-73292826D01*
X123527687Y-73242454D01*
X123550500Y-73098422D01*
X123550500Y-72901577D01*
X123518976Y-72702546D01*
X123527930Y-72633253D01*
X123553773Y-72595462D01*
X123562422Y-72586814D01*
X123623747Y-72553332D01*
X123650098Y-72550500D01*
X124360612Y-72550500D01*
X124427651Y-72570185D01*
X124473406Y-72622989D01*
X124483350Y-72692147D01*
X124481186Y-72703447D01*
X124480290Y-72707178D01*
X124449500Y-72901577D01*
X124449500Y-73098422D01*
X124480290Y-73292826D01*
X124541117Y-73480029D01*
X124595952Y-73587648D01*
X124630476Y-73655405D01*
X124746172Y-73814646D01*
X124885354Y-73953828D01*
X125044595Y-74069524D01*
X125127455Y-74111743D01*
X125219970Y-74158882D01*
X125219972Y-74158882D01*
X125219975Y-74158884D01*
X125320317Y-74191487D01*
X125407173Y-74219709D01*
X125601578Y-74250500D01*
X125601583Y-74250500D01*
X125798422Y-74250500D01*
X125992826Y-74219709D01*
X126180025Y-74158884D01*
X126355405Y-74069524D01*
X126514646Y-73953828D01*
X126653828Y-73814646D01*
X126769524Y-73655405D01*
X126858884Y-73480025D01*
X126919709Y-73292826D01*
X126927687Y-73242454D01*
X126950500Y-73098422D01*
X126950500Y-72901577D01*
X126924844Y-72739597D01*
X126919709Y-72707174D01*
X126919705Y-72707162D01*
X126918814Y-72703447D01*
X126922305Y-72633664D01*
X126962969Y-72576847D01*
X127027895Y-72551034D01*
X127039388Y-72550500D01*
X134404651Y-72550500D01*
X134471690Y-72570185D01*
X134517445Y-72622989D01*
X134527389Y-72692147D01*
X134510190Y-72739594D01*
X134490826Y-72770989D01*
X134460187Y-72820663D01*
X134460186Y-72820666D01*
X134405001Y-72987203D01*
X134405001Y-72987204D01*
X134405000Y-72987204D01*
X134394500Y-73089983D01*
X134394500Y-74290001D01*
X134394501Y-74290018D01*
X134405000Y-74392796D01*
X134405001Y-74392799D01*
X134443207Y-74508094D01*
X134460186Y-74559334D01*
X134552288Y-74708656D01*
X134676344Y-74832712D01*
X134825666Y-74924814D01*
X134907570Y-74951954D01*
X134965015Y-74991727D01*
X134991838Y-75056243D01*
X134979523Y-75125018D01*
X134941451Y-75169978D01*
X134847787Y-75238028D01*
X134847782Y-75238032D01*
X134703028Y-75382786D01*
X134582715Y-75548386D01*
X134489781Y-75730776D01*
X134426522Y-75925465D01*
X134394500Y-76127648D01*
X134394500Y-76332351D01*
X134426522Y-76534534D01*
X134489781Y-76729223D01*
X134582715Y-76911613D01*
X134703028Y-77077213D01*
X134847786Y-77221971D01*
X134993658Y-77327951D01*
X135013390Y-77342287D01*
X135104840Y-77388883D01*
X135106080Y-77389515D01*
X135156876Y-77437490D01*
X135173671Y-77505311D01*
X135151134Y-77571446D01*
X135106080Y-77610485D01*
X135013386Y-77657715D01*
X134847786Y-77778028D01*
X134703028Y-77922786D01*
X134582715Y-78088386D01*
X134489777Y-78270784D01*
X134488790Y-78273170D01*
X134488171Y-78273937D01*
X134487568Y-78275122D01*
X134487319Y-78274995D01*
X134444950Y-78327575D01*
X134378657Y-78349641D01*
X134364500Y-78349338D01*
X134317882Y-78345669D01*
X133663554Y-78999999D01*
X133663554Y-79000000D01*
X134317882Y-79654328D01*
X134317883Y-79654328D01*
X134336331Y-79628937D01*
X134399136Y-79505676D01*
X134447110Y-79454880D01*
X134514931Y-79438085D01*
X134581066Y-79460622D01*
X134609939Y-79489086D01*
X134703028Y-79617212D01*
X134703032Y-79617217D01*
X134847786Y-79761971D01*
X135013385Y-79882284D01*
X135013387Y-79882285D01*
X135013390Y-79882287D01*
X135106080Y-79929515D01*
X135106630Y-79929795D01*
X135157426Y-79977770D01*
X135174221Y-80045591D01*
X135151684Y-80111725D01*
X135106630Y-80150765D01*
X135013644Y-80198143D01*
X134969077Y-80230523D01*
X134969077Y-80230524D01*
X135648554Y-80910000D01*
X135642339Y-80910000D01*
X135540606Y-80937259D01*
X135449394Y-80989920D01*
X135374920Y-81064394D01*
X135322259Y-81155606D01*
X135295000Y-81257339D01*
X135295000Y-81263553D01*
X134615524Y-80584077D01*
X134615523Y-80584077D01*
X134583143Y-80628644D01*
X134490244Y-80810968D01*
X134427009Y-81005582D01*
X134395000Y-81207682D01*
X134395000Y-81412317D01*
X134427009Y-81614417D01*
X134490244Y-81809031D01*
X134583141Y-81991350D01*
X134583147Y-81991359D01*
X134615523Y-82035921D01*
X134615524Y-82035922D01*
X135295000Y-81356446D01*
X135295000Y-81362661D01*
X135322259Y-81464394D01*
X135374920Y-81555606D01*
X135449394Y-81630080D01*
X135540606Y-81682741D01*
X135642339Y-81710000D01*
X135648553Y-81710000D01*
X134969076Y-82389474D01*
X135013650Y-82421859D01*
X135195968Y-82514755D01*
X135390582Y-82577990D01*
X135592683Y-82610000D01*
X135797317Y-82610000D01*
X135999417Y-82577990D01*
X136194031Y-82514755D01*
X136376349Y-82421859D01*
X136420921Y-82389474D01*
X135741447Y-81710000D01*
X135747661Y-81710000D01*
X135849394Y-81682741D01*
X135940606Y-81630080D01*
X136015080Y-81555606D01*
X136067741Y-81464394D01*
X136095000Y-81362661D01*
X136095000Y-81356448D01*
X136774474Y-82035922D01*
X136774474Y-82035921D01*
X136806859Y-81991349D01*
X136899755Y-81809031D01*
X136962990Y-81614417D01*
X136995000Y-81412317D01*
X136995000Y-81207682D01*
X136962990Y-81005582D01*
X136899755Y-80810968D01*
X136806859Y-80628650D01*
X136774474Y-80584077D01*
X136774474Y-80584076D01*
X136095000Y-81263551D01*
X136095000Y-81257339D01*
X136067741Y-81155606D01*
X136015080Y-81064394D01*
X135940606Y-80989920D01*
X135849394Y-80937259D01*
X135747661Y-80910000D01*
X135741446Y-80910000D01*
X136420922Y-80230524D01*
X136420921Y-80230523D01*
X136376359Y-80198147D01*
X136376350Y-80198141D01*
X136283369Y-80150765D01*
X136232573Y-80102790D01*
X136215778Y-80034969D01*
X136238315Y-79968835D01*
X136283370Y-79929795D01*
X136283920Y-79929515D01*
X136376610Y-79882287D01*
X136427461Y-79845342D01*
X136542213Y-79761971D01*
X136542215Y-79761968D01*
X136542219Y-79761966D01*
X136686966Y-79617219D01*
X136686968Y-79617215D01*
X136686971Y-79617213D01*
X136772130Y-79500000D01*
X136807287Y-79451610D01*
X136900220Y-79269219D01*
X136963477Y-79074534D01*
X136995500Y-78872352D01*
X136995500Y-78667648D01*
X136975181Y-78539362D01*
X136963477Y-78465465D01*
X136924553Y-78345670D01*
X136900220Y-78270781D01*
X136900218Y-78270778D01*
X136900218Y-78270776D01*
X136845756Y-78163890D01*
X136807287Y-78088390D01*
X136792651Y-78068245D01*
X136686971Y-77922786D01*
X136542213Y-77778028D01*
X136376614Y-77657715D01*
X136370006Y-77654348D01*
X136283917Y-77610483D01*
X136233123Y-77562511D01*
X136216328Y-77494690D01*
X136238865Y-77428555D01*
X136283917Y-77389516D01*
X136376610Y-77342287D01*
X136397770Y-77326913D01*
X136542213Y-77221971D01*
X136542215Y-77221968D01*
X136542219Y-77221966D01*
X136686966Y-77077219D01*
X136686968Y-77077215D01*
X136686971Y-77077213D01*
X136739732Y-77004590D01*
X136807287Y-76911610D01*
X136900220Y-76729219D01*
X136963477Y-76534534D01*
X136995500Y-76332352D01*
X136995500Y-76127648D01*
X136989162Y-76087635D01*
X136963477Y-75925465D01*
X136900218Y-75730776D01*
X136855151Y-75642328D01*
X136807287Y-75548390D01*
X136777566Y-75507482D01*
X136686971Y-75382786D01*
X136542219Y-75238034D01*
X136542211Y-75238028D01*
X136448547Y-75169978D01*
X136405882Y-75114649D01*
X136399903Y-75045036D01*
X136432508Y-74983240D01*
X136482426Y-74951955D01*
X136564334Y-74924814D01*
X136713656Y-74832712D01*
X136837712Y-74708656D01*
X136929814Y-74559334D01*
X136984999Y-74392797D01*
X136995500Y-74290009D01*
X136995499Y-73089992D01*
X136984999Y-72987203D01*
X136929814Y-72820666D01*
X136879809Y-72739595D01*
X136861370Y-72672204D01*
X136882293Y-72605541D01*
X136935935Y-72560771D01*
X136985349Y-72550500D01*
X141274903Y-72550500D01*
X141341942Y-72570185D01*
X141362584Y-72586819D01*
X142020921Y-73245157D01*
X142054406Y-73306480D01*
X142051173Y-73371149D01*
X142046523Y-73385460D01*
X142046523Y-73385462D01*
X142014500Y-73587648D01*
X142014500Y-73792351D01*
X142046522Y-73994534D01*
X142051173Y-74008848D01*
X142053165Y-74078690D01*
X142020921Y-74134842D01*
X141846286Y-74309478D01*
X141734481Y-74421282D01*
X141734479Y-74421285D01*
X141684361Y-74508094D01*
X141684359Y-74508096D01*
X141655425Y-74558209D01*
X141655424Y-74558210D01*
X141639544Y-74617472D01*
X141614499Y-74710943D01*
X141614499Y-74710945D01*
X141614499Y-74879046D01*
X141614500Y-74879059D01*
X141614500Y-85824902D01*
X141594815Y-85891941D01*
X141578181Y-85912583D01*
X139050830Y-88439933D01*
X138989507Y-88473418D01*
X138943751Y-88474725D01*
X138784486Y-88449500D01*
X138784481Y-88449500D01*
X138595519Y-88449500D01*
X138595514Y-88449500D01*
X138408881Y-88479059D01*
X138229163Y-88537454D01*
X138060800Y-88623240D01*
X137973579Y-88686610D01*
X137907927Y-88734310D01*
X137907925Y-88734312D01*
X137907924Y-88734312D01*
X137774312Y-88867924D01*
X137774312Y-88867925D01*
X137774310Y-88867927D01*
X137726610Y-88933579D01*
X137663240Y-89020800D01*
X137577454Y-89189163D01*
X137519059Y-89368881D01*
X137489500Y-89555513D01*
X137489500Y-89744486D01*
X137515098Y-89906102D01*
X137506144Y-89975395D01*
X137461148Y-90028847D01*
X137394396Y-90049487D01*
X137392625Y-90049500D01*
X136872595Y-90049500D01*
X136805556Y-90029815D01*
X136759801Y-89977011D01*
X136749857Y-89907853D01*
X136753936Y-89889501D01*
X136755610Y-89883980D01*
X136794999Y-89685958D01*
X136795000Y-89685955D01*
X136795000Y-89610000D01*
X136050330Y-89610000D01*
X136070075Y-89590255D01*
X136119444Y-89504745D01*
X136145000Y-89409370D01*
X136145000Y-89310630D01*
X136119444Y-89215255D01*
X136070075Y-89129745D01*
X136050330Y-89110000D01*
X136795000Y-89110000D01*
X136795000Y-89034045D01*
X136794999Y-89034041D01*
X136755612Y-88836025D01*
X136755609Y-88836016D01*
X136678347Y-88649486D01*
X136678340Y-88649473D01*
X136566170Y-88481600D01*
X136566167Y-88481596D01*
X136423403Y-88338832D01*
X136423399Y-88338829D01*
X136255526Y-88226659D01*
X136255513Y-88226652D01*
X136068984Y-88149390D01*
X136068977Y-88149388D01*
X136020000Y-88139645D01*
X136020000Y-89079670D01*
X136000255Y-89059925D01*
X135914745Y-89010556D01*
X135819370Y-88985000D01*
X135720630Y-88985000D01*
X135625255Y-89010556D01*
X135539745Y-89059925D01*
X135525500Y-89074170D01*
X135525500Y-89033997D01*
X135520277Y-89007740D01*
X135520032Y-88996953D01*
X135520211Y-88996284D01*
X135520000Y-88994134D01*
X135520000Y-88139646D01*
X135519999Y-88139645D01*
X135471022Y-88149388D01*
X135471015Y-88149390D01*
X135284481Y-88226654D01*
X135284479Y-88226655D01*
X135204337Y-88280204D01*
X135137660Y-88301081D01*
X135070280Y-88282596D01*
X135066558Y-88280204D01*
X134985754Y-88226212D01*
X134799127Y-88148909D01*
X134799119Y-88148907D01*
X134601007Y-88109500D01*
X134601003Y-88109500D01*
X134398997Y-88109500D01*
X134398992Y-88109500D01*
X134200880Y-88148907D01*
X134200868Y-88148910D01*
X134120198Y-88182325D01*
X134050729Y-88189794D01*
X134005342Y-88170036D01*
X134005114Y-88170454D01*
X134000447Y-88167905D01*
X133998432Y-88167028D01*
X133997331Y-88166204D01*
X133997330Y-88166203D01*
X133997328Y-88166202D01*
X133862482Y-88115908D01*
X133862483Y-88115908D01*
X133802883Y-88109501D01*
X133802881Y-88109500D01*
X133802873Y-88109500D01*
X133802864Y-88109500D01*
X132657129Y-88109500D01*
X132657123Y-88109501D01*
X132597516Y-88115908D01*
X132462671Y-88166202D01*
X132462664Y-88166206D01*
X132347455Y-88252452D01*
X132347452Y-88252455D01*
X132261206Y-88367664D01*
X132261202Y-88367671D01*
X132210908Y-88502517D01*
X132204501Y-88562116D01*
X132204500Y-88562135D01*
X132204500Y-90157870D01*
X132204501Y-90157876D01*
X132210908Y-90217483D01*
X132261202Y-90352328D01*
X132261206Y-90352335D01*
X132347452Y-90467544D01*
X132347455Y-90467547D01*
X132462664Y-90553793D01*
X132462671Y-90553797D01*
X132597517Y-90604091D01*
X132597516Y-90604091D01*
X132604444Y-90604835D01*
X132657127Y-90610500D01*
X133458176Y-90610499D01*
X133525215Y-90630183D01*
X133545857Y-90646818D01*
X134313413Y-91414374D01*
X134313423Y-91414385D01*
X134317753Y-91418715D01*
X134317754Y-91418716D01*
X134429558Y-91530520D01*
X134429560Y-91530521D01*
X134429564Y-91530524D01*
X134566483Y-91609573D01*
X134566490Y-91609577D01*
X134678293Y-91639534D01*
X134719216Y-91650500D01*
X134719217Y-91650500D01*
X142239016Y-91650500D01*
X142239032Y-91650501D01*
X142246628Y-91650501D01*
X142404739Y-91650501D01*
X142404742Y-91650501D01*
X142557470Y-91609577D01*
X142607589Y-91580639D01*
X142694401Y-91530520D01*
X142806205Y-91418716D01*
X142806205Y-91418714D01*
X142816413Y-91408507D01*
X142816414Y-91408504D01*
X144922468Y-89302452D01*
X144983790Y-89268968D01*
X145053482Y-89273952D01*
X145109415Y-89315824D01*
X145133832Y-89381288D01*
X145132621Y-89409532D01*
X145109500Y-89555513D01*
X145109500Y-89744486D01*
X145139059Y-89931118D01*
X145197454Y-90110836D01*
X145251794Y-90217483D01*
X145283240Y-90279199D01*
X145394310Y-90432073D01*
X145527927Y-90565690D01*
X145680801Y-90676760D01*
X145743108Y-90708507D01*
X145849163Y-90762545D01*
X145849165Y-90762545D01*
X145849168Y-90762547D01*
X145945497Y-90793846D01*
X146028881Y-90820940D01*
X146215514Y-90850500D01*
X146215519Y-90850500D01*
X146404485Y-90850500D01*
X146490389Y-90836893D01*
X146574094Y-90823636D01*
X146643386Y-90832590D01*
X146655486Y-90838719D01*
X146778216Y-90909577D01*
X146890019Y-90939534D01*
X146930942Y-90950500D01*
X146930943Y-90950500D01*
X150333331Y-90950500D01*
X150333347Y-90950501D01*
X150340943Y-90950501D01*
X150499054Y-90950501D01*
X150499057Y-90950501D01*
X150651785Y-90909577D01*
X150701904Y-90880639D01*
X150788716Y-90830520D01*
X150900520Y-90718716D01*
X150900520Y-90718714D01*
X150910728Y-90708507D01*
X150910730Y-90708504D01*
X151745797Y-89873436D01*
X151807118Y-89839953D01*
X151871794Y-89843188D01*
X151942049Y-89866015D01*
X152159778Y-89900500D01*
X152159779Y-89900500D01*
X152380221Y-89900500D01*
X152380222Y-89900500D01*
X152597951Y-89866015D01*
X152807606Y-89797895D01*
X153004022Y-89697815D01*
X153182365Y-89568242D01*
X153338242Y-89412365D01*
X153467815Y-89234022D01*
X153567895Y-89037606D01*
X153636015Y-88827951D01*
X153670500Y-88610222D01*
X153670500Y-88389778D01*
X153636015Y-88172049D01*
X153567895Y-87962394D01*
X153567895Y-87962393D01*
X153498913Y-87827011D01*
X153467815Y-87765978D01*
X153409501Y-87685715D01*
X153338247Y-87587641D01*
X153338243Y-87587636D01*
X153182363Y-87431756D01*
X153182358Y-87431752D01*
X153004025Y-87302187D01*
X153004024Y-87302186D01*
X153004022Y-87302185D01*
X152886791Y-87242452D01*
X152807606Y-87202104D01*
X152807603Y-87202103D01*
X152597952Y-87133985D01*
X152489086Y-87116742D01*
X152380222Y-87099500D01*
X152159778Y-87099500D01*
X152087201Y-87110995D01*
X151942047Y-87133985D01*
X151732396Y-87202103D01*
X151732393Y-87202104D01*
X151535974Y-87302187D01*
X151357641Y-87431752D01*
X151357636Y-87431756D01*
X151307463Y-87481929D01*
X151246140Y-87515413D01*
X151176448Y-87510428D01*
X151120515Y-87468557D01*
X151103601Y-87437580D01*
X151073797Y-87357671D01*
X151073793Y-87357664D01*
X150987547Y-87242455D01*
X150987544Y-87242452D01*
X150872335Y-87156206D01*
X150872328Y-87156202D01*
X150737482Y-87105908D01*
X150737483Y-87105908D01*
X150677883Y-87099501D01*
X150677881Y-87099500D01*
X150677873Y-87099500D01*
X150677864Y-87099500D01*
X148782129Y-87099500D01*
X148782123Y-87099501D01*
X148722516Y-87105908D01*
X148587671Y-87156202D01*
X148587664Y-87156206D01*
X148472455Y-87242452D01*
X148472452Y-87242455D01*
X148386206Y-87357664D01*
X148386202Y-87357671D01*
X148335908Y-87492517D01*
X148329501Y-87552116D01*
X148329500Y-87552135D01*
X148329500Y-87775500D01*
X148309815Y-87842539D01*
X148257011Y-87888294D01*
X148205500Y-87899500D01*
X146670589Y-87899500D01*
X146603550Y-87879815D01*
X146557795Y-87827011D01*
X146547851Y-87757853D01*
X146576876Y-87694297D01*
X146632270Y-87657569D01*
X146660945Y-87648251D01*
X146770832Y-87612547D01*
X146939199Y-87526760D01*
X147092073Y-87415690D01*
X147225690Y-87282073D01*
X147336760Y-87129199D01*
X147422547Y-86960832D01*
X147480940Y-86781118D01*
X147510500Y-86594486D01*
X147510500Y-86405513D01*
X147480940Y-86218881D01*
X147424748Y-86045942D01*
X147422547Y-86039168D01*
X147422545Y-86039165D01*
X147422545Y-86039163D01*
X147336759Y-85870800D01*
X147303412Y-85824902D01*
X147225690Y-85717927D01*
X147092073Y-85584310D01*
X146939199Y-85473240D01*
X146770836Y-85387454D01*
X146591118Y-85329059D01*
X146404486Y-85299500D01*
X146404481Y-85299500D01*
X146215519Y-85299500D01*
X146215514Y-85299500D01*
X146028881Y-85329059D01*
X145849163Y-85387454D01*
X145680800Y-85473240D01*
X145593579Y-85536610D01*
X145527927Y-85584310D01*
X145527925Y-85584312D01*
X145527924Y-85584312D01*
X145394312Y-85717924D01*
X145394312Y-85717925D01*
X145394310Y-85717927D01*
X145346610Y-85783579D01*
X145283240Y-85870800D01*
X145197454Y-86039163D01*
X145139059Y-86218881D01*
X145109500Y-86405513D01*
X145109500Y-86594486D01*
X145134725Y-86753751D01*
X145125770Y-86823045D01*
X145099933Y-86860830D01*
X141947584Y-90013181D01*
X141886261Y-90046666D01*
X141859903Y-90049500D01*
X139987375Y-90049500D01*
X139920336Y-90029815D01*
X139874581Y-89977011D01*
X139864637Y-89907853D01*
X139864902Y-89906102D01*
X139890500Y-89744486D01*
X139890500Y-89555513D01*
X139865274Y-89396246D01*
X139874228Y-89326953D01*
X139900063Y-89289170D01*
X142573506Y-86615728D01*
X142573511Y-86615724D01*
X142583714Y-86605520D01*
X142583716Y-86605520D01*
X142695520Y-86493716D01*
X142746440Y-86405519D01*
X142774577Y-86356785D01*
X142815501Y-86204057D01*
X142815501Y-86045942D01*
X142815501Y-86038347D01*
X142815500Y-86038329D01*
X142815500Y-82685800D01*
X142835185Y-82618761D01*
X142887989Y-82573006D01*
X142957147Y-82563062D01*
X142977820Y-82567870D01*
X143010458Y-82578475D01*
X143010461Y-82578475D01*
X143010466Y-82578477D01*
X143212648Y-82610500D01*
X143212649Y-82610500D01*
X143417351Y-82610500D01*
X143417352Y-82610500D01*
X143619534Y-82578477D01*
X143814219Y-82515220D01*
X143996610Y-82422287D01*
X144101033Y-82346420D01*
X144162213Y-82301971D01*
X144162215Y-82301968D01*
X144162219Y-82301966D01*
X144306966Y-82157219D01*
X144306968Y-82157215D01*
X144306971Y-82157213D01*
X144359732Y-82084590D01*
X144427287Y-81991610D01*
X144520220Y-81809219D01*
X144583477Y-81614534D01*
X144615500Y-81412352D01*
X144615500Y-81207648D01*
X144607257Y-81155606D01*
X144583477Y-81005465D01*
X144538008Y-80865526D01*
X144520220Y-80810781D01*
X144520218Y-80810778D01*
X144520218Y-80810776D01*
X144443445Y-80660102D01*
X144438841Y-80651066D01*
X144427287Y-80628390D01*
X144419556Y-80617749D01*
X144306971Y-80462786D01*
X144162213Y-80318028D01*
X143996614Y-80197715D01*
X143943105Y-80170451D01*
X143903917Y-80150483D01*
X143853123Y-80102511D01*
X143836328Y-80034690D01*
X143858865Y-79968555D01*
X143903917Y-79929516D01*
X143996610Y-79882287D01*
X144036159Y-79853553D01*
X144162213Y-79761971D01*
X144162215Y-79761968D01*
X144162219Y-79761966D01*
X144306966Y-79617219D01*
X144306968Y-79617215D01*
X144306971Y-79617213D01*
X144392130Y-79500000D01*
X144427287Y-79451610D01*
X144520220Y-79269219D01*
X144583477Y-79074534D01*
X144615500Y-78872352D01*
X144615500Y-78667648D01*
X144595181Y-78539362D01*
X144583477Y-78465465D01*
X144544553Y-78345670D01*
X144520220Y-78270781D01*
X144520218Y-78270778D01*
X144520218Y-78270776D01*
X144465756Y-78163890D01*
X144427287Y-78088390D01*
X144412651Y-78068245D01*
X144306971Y-77922786D01*
X144162213Y-77778028D01*
X143996614Y-77657715D01*
X143990006Y-77654348D01*
X143903917Y-77610483D01*
X143853123Y-77562511D01*
X143836328Y-77494690D01*
X143858865Y-77428555D01*
X143903917Y-77389516D01*
X143996610Y-77342287D01*
X144017770Y-77326913D01*
X144162213Y-77221971D01*
X144162215Y-77221968D01*
X144162219Y-77221966D01*
X144306966Y-77077219D01*
X144306968Y-77077215D01*
X144306971Y-77077213D01*
X144359732Y-77004590D01*
X144427287Y-76911610D01*
X144520220Y-76729219D01*
X144583477Y-76534534D01*
X144615500Y-76332352D01*
X144615500Y-76127648D01*
X144609162Y-76087635D01*
X144583477Y-75925465D01*
X144520218Y-75730776D01*
X144475151Y-75642328D01*
X144427287Y-75548390D01*
X144397566Y-75507482D01*
X144306971Y-75382786D01*
X144162213Y-75238028D01*
X143996614Y-75117715D01*
X143990006Y-75114348D01*
X143903917Y-75070483D01*
X143853123Y-75022511D01*
X143836328Y-74954690D01*
X143858865Y-74888555D01*
X143903917Y-74849516D01*
X143996610Y-74802287D01*
X144122333Y-74710945D01*
X144162213Y-74681971D01*
X144162215Y-74681968D01*
X144162219Y-74681966D01*
X144306966Y-74537219D01*
X144306968Y-74537215D01*
X144306971Y-74537213D01*
X144427284Y-74371614D01*
X144427283Y-74371614D01*
X144427287Y-74371610D01*
X144434117Y-74358204D01*
X144482091Y-74307409D01*
X144544602Y-74290500D01*
X144925500Y-74290500D01*
X144992539Y-74310185D01*
X145038294Y-74362989D01*
X145049500Y-74414500D01*
X145049500Y-75447870D01*
X145049501Y-75447876D01*
X145055908Y-75507483D01*
X145106202Y-75642328D01*
X145106206Y-75642335D01*
X145192452Y-75757544D01*
X145192455Y-75757547D01*
X145307664Y-75843793D01*
X145307671Y-75843797D01*
X145358446Y-75862735D01*
X145414380Y-75904606D01*
X145438797Y-75970070D01*
X145423945Y-76038343D01*
X145402796Y-76066596D01*
X145381757Y-76087635D01*
X145381752Y-76087641D01*
X145252187Y-76265974D01*
X145152104Y-76462393D01*
X145152103Y-76462396D01*
X145083985Y-76672047D01*
X145049500Y-76889778D01*
X145049500Y-77110221D01*
X145083985Y-77327952D01*
X145152103Y-77537603D01*
X145152104Y-77537606D01*
X145252187Y-77734025D01*
X145381752Y-77912358D01*
X145381756Y-77912363D01*
X145537636Y-78068243D01*
X145537641Y-78068247D01*
X145650151Y-78149990D01*
X145692817Y-78205319D01*
X145698796Y-78274933D01*
X145666191Y-78336728D01*
X145652513Y-78348579D01*
X145652485Y-78348932D01*
X146320590Y-79017037D01*
X146257007Y-79034075D01*
X146142993Y-79099901D01*
X146049901Y-79192993D01*
X145984075Y-79307007D01*
X145967037Y-79370590D01*
X145298932Y-78702485D01*
X145298931Y-78702485D01*
X145252616Y-78766233D01*
X145152567Y-78962589D01*
X145084473Y-79172164D01*
X145050000Y-79389818D01*
X145050000Y-79610181D01*
X145084473Y-79827835D01*
X145152567Y-80037410D01*
X145252611Y-80233756D01*
X145298932Y-80297513D01*
X145967037Y-79629408D01*
X145984075Y-79692993D01*
X146049901Y-79807007D01*
X146142993Y-79900099D01*
X146257007Y-79965925D01*
X146320590Y-79982962D01*
X145652485Y-80651065D01*
X145652485Y-80651066D01*
X145716243Y-80697388D01*
X145912589Y-80797432D01*
X146122164Y-80865526D01*
X146339819Y-80900000D01*
X146560181Y-80900000D01*
X146777835Y-80865526D01*
X146987410Y-80797432D01*
X147183760Y-80697386D01*
X147247513Y-80651066D01*
X147247514Y-80651066D01*
X147182225Y-80585777D01*
X150949500Y-80585777D01*
X150949500Y-82214208D01*
X150949501Y-82214223D01*
X150959904Y-82346413D01*
X150959905Y-82346420D01*
X151014902Y-82564678D01*
X151014903Y-82564681D01*
X151107991Y-82769622D01*
X151107997Y-82769632D01*
X151236174Y-82954645D01*
X151236178Y-82954650D01*
X151236181Y-82954654D01*
X151395346Y-83113819D01*
X151395350Y-83113822D01*
X151395354Y-83113825D01*
X151534603Y-83210297D01*
X151580374Y-83242007D01*
X151785317Y-83335096D01*
X151785321Y-83335097D01*
X152003579Y-83390094D01*
X152003581Y-83390094D01*
X152003588Y-83390096D01*
X152135783Y-83400500D01*
X154764216Y-83400499D01*
X154896412Y-83390096D01*
X155114683Y-83335096D01*
X155319626Y-83242007D01*
X155504654Y-83113819D01*
X155663819Y-82954654D01*
X155792007Y-82769626D01*
X155885096Y-82564683D01*
X155940096Y-82346412D01*
X155950500Y-82214217D01*
X155950499Y-80585784D01*
X155940096Y-80453588D01*
X155885096Y-80235317D01*
X155792007Y-80030374D01*
X155712554Y-79915690D01*
X155663825Y-79845354D01*
X155663822Y-79845350D01*
X155663819Y-79845346D01*
X155504654Y-79686181D01*
X155504650Y-79686178D01*
X155504645Y-79686174D01*
X155319632Y-79557997D01*
X155319630Y-79557995D01*
X155319626Y-79557993D01*
X155191947Y-79499999D01*
X155114681Y-79464903D01*
X155114678Y-79464902D01*
X154896420Y-79409905D01*
X154896413Y-79409904D01*
X154852347Y-79406436D01*
X154764217Y-79399500D01*
X154764215Y-79399500D01*
X152135791Y-79399500D01*
X152135776Y-79399501D01*
X152003586Y-79409904D01*
X152003579Y-79409905D01*
X151785321Y-79464902D01*
X151785318Y-79464903D01*
X151580377Y-79557991D01*
X151580367Y-79557997D01*
X151395354Y-79686174D01*
X151395342Y-79686184D01*
X151236184Y-79845342D01*
X151236174Y-79845354D01*
X151107997Y-80030367D01*
X151107991Y-80030377D01*
X151014903Y-80235318D01*
X151014902Y-80235321D01*
X150959905Y-80453579D01*
X150959904Y-80453586D01*
X150949500Y-80585777D01*
X147182225Y-80585777D01*
X146579409Y-79982962D01*
X146642993Y-79965925D01*
X146757007Y-79900099D01*
X146850099Y-79807007D01*
X146915925Y-79692993D01*
X146932962Y-79629410D01*
X147601066Y-80297514D01*
X147601066Y-80297513D01*
X147647386Y-80233760D01*
X147747432Y-80037410D01*
X147815526Y-79827835D01*
X147850000Y-79610181D01*
X147850000Y-79389818D01*
X147815526Y-79172164D01*
X147747432Y-78962589D01*
X147647388Y-78766243D01*
X147601066Y-78702485D01*
X147601065Y-78702485D01*
X146932962Y-79370589D01*
X146915925Y-79307007D01*
X146850099Y-79192993D01*
X146757007Y-79099901D01*
X146642993Y-79034075D01*
X146579407Y-79017037D01*
X147247513Y-78348932D01*
X147247396Y-78347450D01*
X147207181Y-78295299D01*
X147201200Y-78225686D01*
X147233805Y-78163890D01*
X147249842Y-78149993D01*
X147362365Y-78068242D01*
X147518242Y-77912365D01*
X147647815Y-77734022D01*
X147747895Y-77537606D01*
X147816015Y-77327951D01*
X147850500Y-77110222D01*
X147850500Y-76889778D01*
X147816015Y-76672049D01*
X147747895Y-76462394D01*
X147747895Y-76462393D01*
X147713237Y-76394375D01*
X147647815Y-76265978D01*
X147547313Y-76127648D01*
X147518247Y-76087641D01*
X147518243Y-76087636D01*
X147497205Y-76066598D01*
X147463720Y-76005275D01*
X147468704Y-75935583D01*
X147510576Y-75879650D01*
X147541554Y-75862735D01*
X147592326Y-75843798D01*
X147592326Y-75843797D01*
X147592331Y-75843796D01*
X147707546Y-75757546D01*
X147793796Y-75642331D01*
X147844091Y-75507483D01*
X147850500Y-75447873D01*
X147850499Y-73552128D01*
X147844091Y-73492517D01*
X147839433Y-73480029D01*
X147793797Y-73357671D01*
X147793793Y-73357664D01*
X147707547Y-73242455D01*
X147707544Y-73242452D01*
X147592335Y-73156206D01*
X147592328Y-73156202D01*
X147457482Y-73105908D01*
X147457483Y-73105908D01*
X147397883Y-73099501D01*
X147397881Y-73099500D01*
X147397873Y-73099500D01*
X147397865Y-73099500D01*
X145772707Y-73099500D01*
X145767060Y-73099371D01*
X145753613Y-73098758D01*
X145719057Y-73089499D01*
X145560943Y-73089499D01*
X145560939Y-73089500D01*
X144544602Y-73089500D01*
X144477563Y-73069815D01*
X144434117Y-73021795D01*
X144427284Y-73008385D01*
X144306971Y-72842786D01*
X144162213Y-72698028D01*
X143996613Y-72577715D01*
X143996612Y-72577714D01*
X143996610Y-72577713D01*
X143939653Y-72548691D01*
X143814223Y-72484781D01*
X143619534Y-72421522D01*
X143444995Y-72393878D01*
X143417352Y-72389500D01*
X143212648Y-72389500D01*
X143172211Y-72395904D01*
X143010462Y-72421523D01*
X143010460Y-72421523D01*
X142996149Y-72426173D01*
X142926308Y-72428164D01*
X142870157Y-72395921D01*
X142659587Y-72185351D01*
X142260012Y-71785777D01*
X150949500Y-71785777D01*
X150949500Y-73414208D01*
X150949501Y-73414223D01*
X150959904Y-73546413D01*
X150959905Y-73546420D01*
X151014902Y-73764678D01*
X151014903Y-73764681D01*
X151107991Y-73969622D01*
X151107997Y-73969632D01*
X151236174Y-74154645D01*
X151236178Y-74154650D01*
X151236181Y-74154654D01*
X151395346Y-74313819D01*
X151395350Y-74313822D01*
X151395354Y-74313825D01*
X151534603Y-74410297D01*
X151580374Y-74442007D01*
X151785317Y-74535096D01*
X151785321Y-74535097D01*
X152003579Y-74590094D01*
X152003581Y-74590094D01*
X152003588Y-74590096D01*
X152135783Y-74600500D01*
X154764216Y-74600499D01*
X154896412Y-74590096D01*
X155114683Y-74535096D01*
X155319626Y-74442007D01*
X155504654Y-74313819D01*
X155663819Y-74154654D01*
X155792007Y-73969626D01*
X155885096Y-73764683D01*
X155940096Y-73546412D01*
X155950500Y-73414217D01*
X155950499Y-71785784D01*
X155940096Y-71653588D01*
X155885096Y-71435317D01*
X155792007Y-71230374D01*
X155663819Y-71045346D01*
X155504654Y-70886181D01*
X155504650Y-70886178D01*
X155504645Y-70886174D01*
X155319632Y-70757997D01*
X155319630Y-70757995D01*
X155319626Y-70757993D01*
X155114683Y-70664904D01*
X155114681Y-70664903D01*
X155114678Y-70664902D01*
X154896420Y-70609905D01*
X154896413Y-70609904D01*
X154852347Y-70606436D01*
X154764217Y-70599500D01*
X154764215Y-70599500D01*
X152135791Y-70599500D01*
X152135776Y-70599501D01*
X152003586Y-70609904D01*
X152003579Y-70609905D01*
X151785321Y-70664902D01*
X151785318Y-70664903D01*
X151580377Y-70757991D01*
X151580367Y-70757997D01*
X151395354Y-70886174D01*
X151395342Y-70886184D01*
X151236184Y-71045342D01*
X151236174Y-71045354D01*
X151107997Y-71230367D01*
X151107991Y-71230377D01*
X151014903Y-71435318D01*
X151014902Y-71435321D01*
X150959905Y-71653579D01*
X150959904Y-71653586D01*
X150949500Y-71785777D01*
X142260012Y-71785777D01*
X142062589Y-71588354D01*
X142062588Y-71588352D01*
X141943717Y-71469481D01*
X141943712Y-71469477D01*
X141827157Y-71402185D01*
X141827155Y-71402183D01*
X141813575Y-71394343D01*
X141806785Y-71390423D01*
X141654057Y-71349499D01*
X141495943Y-71349499D01*
X141488347Y-71349499D01*
X141488331Y-71349500D01*
X123270942Y-71349500D01*
X123118214Y-71390423D01*
X123097843Y-71402185D01*
X123097842Y-71402185D01*
X122981287Y-71469477D01*
X122981282Y-71469481D01*
X122869480Y-71581284D01*
X122869478Y-71581286D01*
X122704532Y-71746232D01*
X122643209Y-71779716D01*
X122597453Y-71781023D01*
X122398422Y-71749500D01*
X122398417Y-71749500D01*
X122201583Y-71749500D01*
X122201578Y-71749500D01*
X122007173Y-71780290D01*
X121819970Y-71841117D01*
X121644594Y-71930476D01*
X121553741Y-71996485D01*
X121485354Y-72046172D01*
X121485352Y-72046174D01*
X121485351Y-72046174D01*
X121346174Y-72185351D01*
X121346174Y-72185352D01*
X121346172Y-72185354D01*
X121296485Y-72253741D01*
X121230476Y-72344594D01*
X121141117Y-72519970D01*
X121080290Y-72707173D01*
X121049500Y-72901577D01*
X120500000Y-72901577D01*
X120500000Y-67624000D01*
X120519685Y-67556961D01*
X120572489Y-67511206D01*
X120624000Y-67500000D01*
X161376000Y-67500000D01*
X161443039Y-67519685D01*
G37*
%TD.AperFunction*%
%TD*%
%TA.AperFunction,NonConductor*%
G36*
X148272540Y-89120185D02*
G01*
X148318295Y-89172989D01*
X148329501Y-89224500D01*
X148329501Y-89447876D01*
X148335908Y-89507483D01*
X148363764Y-89582167D01*
X148368748Y-89651859D01*
X148335263Y-89713182D01*
X148273939Y-89746666D01*
X148247582Y-89749500D01*
X147634500Y-89749500D01*
X147567461Y-89729815D01*
X147521706Y-89677011D01*
X147510500Y-89625500D01*
X147510500Y-89555513D01*
X147487827Y-89412365D01*
X147480940Y-89368882D01*
X147480939Y-89368878D01*
X147480939Y-89368877D01*
X147446478Y-89262818D01*
X147444483Y-89192977D01*
X147480563Y-89133144D01*
X147543264Y-89102316D01*
X147564409Y-89100500D01*
X148205501Y-89100500D01*
X148272540Y-89120185D01*
G37*
%TD.AperFunction*%
M02*
