%TF.GenerationSoftware,KiCad,Pcbnew,10.0.0*%
%TF.CreationDate,2026-07-01T11:34:51+05:30*%
%TF.ProjectId,Automatic night lamp,4175746f-6d61-4746-9963-206e69676874,rev?*%
%TF.SameCoordinates,Original*%
%TF.FileFunction,Legend,Top*%
%TF.FilePolarity,Positive*%
%FSLAX46Y46*%
G04 Gerber Fmt 4.6, Leading zero omitted, Abs format (unit mm)*
G04 Created by KiCad (PCBNEW 10.0.0) date 2026-07-01 11:34:51*
%MOMM*%
%LPD*%
G01*
G04 APERTURE LIST*
%ADD10C,0.150000*%
%ADD11C,0.120000*%
G04 APERTURE END LIST*
D10*
X142333333Y-88184819D02*
X142000000Y-87708628D01*
X141761905Y-88184819D02*
X141761905Y-87184819D01*
X141761905Y-87184819D02*
X142142857Y-87184819D01*
X142142857Y-87184819D02*
X142238095Y-87232438D01*
X142238095Y-87232438D02*
X142285714Y-87280057D01*
X142285714Y-87280057D02*
X142333333Y-87375295D01*
X142333333Y-87375295D02*
X142333333Y-87518152D01*
X142333333Y-87518152D02*
X142285714Y-87613390D01*
X142285714Y-87613390D02*
X142238095Y-87661009D01*
X142238095Y-87661009D02*
X142142857Y-87708628D01*
X142142857Y-87708628D02*
X141761905Y-87708628D01*
X143190476Y-87518152D02*
X143190476Y-88184819D01*
X142952381Y-87137200D02*
X142714286Y-87851485D01*
X142714286Y-87851485D02*
X143333333Y-87851485D01*
X133404761Y-86410057D02*
X133309523Y-86362438D01*
X133309523Y-86362438D02*
X133214285Y-86267200D01*
X133214285Y-86267200D02*
X133071428Y-86124342D01*
X133071428Y-86124342D02*
X132976190Y-86076723D01*
X132976190Y-86076723D02*
X132880952Y-86076723D01*
X132928571Y-86314819D02*
X132833333Y-86267200D01*
X132833333Y-86267200D02*
X132738095Y-86171961D01*
X132738095Y-86171961D02*
X132690476Y-85981485D01*
X132690476Y-85981485D02*
X132690476Y-85648152D01*
X132690476Y-85648152D02*
X132738095Y-85457676D01*
X132738095Y-85457676D02*
X132833333Y-85362438D01*
X132833333Y-85362438D02*
X132928571Y-85314819D01*
X132928571Y-85314819D02*
X133119047Y-85314819D01*
X133119047Y-85314819D02*
X133214285Y-85362438D01*
X133214285Y-85362438D02*
X133309523Y-85457676D01*
X133309523Y-85457676D02*
X133357142Y-85648152D01*
X133357142Y-85648152D02*
X133357142Y-85981485D01*
X133357142Y-85981485D02*
X133309523Y-86171961D01*
X133309523Y-86171961D02*
X133214285Y-86267200D01*
X133214285Y-86267200D02*
X133119047Y-86314819D01*
X133119047Y-86314819D02*
X132928571Y-86314819D01*
X134309523Y-86314819D02*
X133738095Y-86314819D01*
X134023809Y-86314819D02*
X134023809Y-85314819D01*
X134023809Y-85314819D02*
X133928571Y-85457676D01*
X133928571Y-85457676D02*
X133833333Y-85552914D01*
X133833333Y-85552914D02*
X133738095Y-85600533D01*
X138743095Y-70814819D02*
X138743095Y-71624342D01*
X138743095Y-71624342D02*
X138790714Y-71719580D01*
X138790714Y-71719580D02*
X138838333Y-71767200D01*
X138838333Y-71767200D02*
X138933571Y-71814819D01*
X138933571Y-71814819D02*
X139124047Y-71814819D01*
X139124047Y-71814819D02*
X139219285Y-71767200D01*
X139219285Y-71767200D02*
X139266904Y-71719580D01*
X139266904Y-71719580D02*
X139314523Y-71624342D01*
X139314523Y-71624342D02*
X139314523Y-70814819D01*
X140314523Y-71814819D02*
X139743095Y-71814819D01*
X140028809Y-71814819D02*
X140028809Y-70814819D01*
X140028809Y-70814819D02*
X139933571Y-70957676D01*
X139933571Y-70957676D02*
X139838333Y-71052914D01*
X139838333Y-71052914D02*
X139743095Y-71100533D01*
X129333333Y-77534819D02*
X129000000Y-77058628D01*
X128761905Y-77534819D02*
X128761905Y-76534819D01*
X128761905Y-76534819D02*
X129142857Y-76534819D01*
X129142857Y-76534819D02*
X129238095Y-76582438D01*
X129238095Y-76582438D02*
X129285714Y-76630057D01*
X129285714Y-76630057D02*
X129333333Y-76725295D01*
X129333333Y-76725295D02*
X129333333Y-76868152D01*
X129333333Y-76868152D02*
X129285714Y-76963390D01*
X129285714Y-76963390D02*
X129238095Y-77011009D01*
X129238095Y-77011009D02*
X129142857Y-77058628D01*
X129142857Y-77058628D02*
X128761905Y-77058628D01*
X130285714Y-77534819D02*
X129714286Y-77534819D01*
X130000000Y-77534819D02*
X130000000Y-76534819D01*
X130000000Y-76534819D02*
X129904762Y-76677676D01*
X129904762Y-76677676D02*
X129809524Y-76772914D01*
X129809524Y-76772914D02*
X129714286Y-76820533D01*
X150261905Y-84994819D02*
X150261905Y-83994819D01*
X150261905Y-83994819D02*
X150500000Y-83994819D01*
X150500000Y-83994819D02*
X150642857Y-84042438D01*
X150642857Y-84042438D02*
X150738095Y-84137676D01*
X150738095Y-84137676D02*
X150785714Y-84232914D01*
X150785714Y-84232914D02*
X150833333Y-84423390D01*
X150833333Y-84423390D02*
X150833333Y-84566247D01*
X150833333Y-84566247D02*
X150785714Y-84756723D01*
X150785714Y-84756723D02*
X150738095Y-84851961D01*
X150738095Y-84851961D02*
X150642857Y-84947200D01*
X150642857Y-84947200D02*
X150500000Y-84994819D01*
X150500000Y-84994819D02*
X150261905Y-84994819D01*
X151785714Y-84994819D02*
X151214286Y-84994819D01*
X151500000Y-84994819D02*
X151500000Y-83994819D01*
X151500000Y-83994819D02*
X151404762Y-84137676D01*
X151404762Y-84137676D02*
X151309524Y-84232914D01*
X151309524Y-84232914D02*
X151214286Y-84280533D01*
X129333333Y-82034819D02*
X129000000Y-81558628D01*
X128761905Y-82034819D02*
X128761905Y-81034819D01*
X128761905Y-81034819D02*
X129142857Y-81034819D01*
X129142857Y-81034819D02*
X129238095Y-81082438D01*
X129238095Y-81082438D02*
X129285714Y-81130057D01*
X129285714Y-81130057D02*
X129333333Y-81225295D01*
X129333333Y-81225295D02*
X129333333Y-81368152D01*
X129333333Y-81368152D02*
X129285714Y-81463390D01*
X129285714Y-81463390D02*
X129238095Y-81511009D01*
X129238095Y-81511009D02*
X129142857Y-81558628D01*
X129142857Y-81558628D02*
X128761905Y-81558628D01*
X130238095Y-81034819D02*
X129761905Y-81034819D01*
X129761905Y-81034819D02*
X129714286Y-81511009D01*
X129714286Y-81511009D02*
X129761905Y-81463390D01*
X129761905Y-81463390D02*
X129857143Y-81415771D01*
X129857143Y-81415771D02*
X130095238Y-81415771D01*
X130095238Y-81415771D02*
X130190476Y-81463390D01*
X130190476Y-81463390D02*
X130238095Y-81511009D01*
X130238095Y-81511009D02*
X130285714Y-81606247D01*
X130285714Y-81606247D02*
X130285714Y-81844342D01*
X130285714Y-81844342D02*
X130238095Y-81939580D01*
X130238095Y-81939580D02*
X130190476Y-81987200D01*
X130190476Y-81987200D02*
X130095238Y-82034819D01*
X130095238Y-82034819D02*
X129857143Y-82034819D01*
X129857143Y-82034819D02*
X129761905Y-81987200D01*
X129761905Y-81987200D02*
X129714286Y-81939580D01*
X123833333Y-70554819D02*
X123500000Y-70078628D01*
X123261905Y-70554819D02*
X123261905Y-69554819D01*
X123261905Y-69554819D02*
X123642857Y-69554819D01*
X123642857Y-69554819D02*
X123738095Y-69602438D01*
X123738095Y-69602438D02*
X123785714Y-69650057D01*
X123785714Y-69650057D02*
X123833333Y-69745295D01*
X123833333Y-69745295D02*
X123833333Y-69888152D01*
X123833333Y-69888152D02*
X123785714Y-69983390D01*
X123785714Y-69983390D02*
X123738095Y-70031009D01*
X123738095Y-70031009D02*
X123642857Y-70078628D01*
X123642857Y-70078628D02*
X123261905Y-70078628D01*
X124690476Y-69554819D02*
X124500000Y-69554819D01*
X124500000Y-69554819D02*
X124404762Y-69602438D01*
X124404762Y-69602438D02*
X124357143Y-69650057D01*
X124357143Y-69650057D02*
X124261905Y-69792914D01*
X124261905Y-69792914D02*
X124214286Y-69983390D01*
X124214286Y-69983390D02*
X124214286Y-70364342D01*
X124214286Y-70364342D02*
X124261905Y-70459580D01*
X124261905Y-70459580D02*
X124309524Y-70507200D01*
X124309524Y-70507200D02*
X124404762Y-70554819D01*
X124404762Y-70554819D02*
X124595238Y-70554819D01*
X124595238Y-70554819D02*
X124690476Y-70507200D01*
X124690476Y-70507200D02*
X124738095Y-70459580D01*
X124738095Y-70459580D02*
X124785714Y-70364342D01*
X124785714Y-70364342D02*
X124785714Y-70126247D01*
X124785714Y-70126247D02*
X124738095Y-70031009D01*
X124738095Y-70031009D02*
X124690476Y-69983390D01*
X124690476Y-69983390D02*
X124595238Y-69935771D01*
X124595238Y-69935771D02*
X124404762Y-69935771D01*
X124404762Y-69935771D02*
X124309524Y-69983390D01*
X124309524Y-69983390D02*
X124261905Y-70031009D01*
X124261905Y-70031009D02*
X124214286Y-70126247D01*
X152333333Y-69804819D02*
X152000000Y-69328628D01*
X151761905Y-69804819D02*
X151761905Y-68804819D01*
X151761905Y-68804819D02*
X152142857Y-68804819D01*
X152142857Y-68804819D02*
X152238095Y-68852438D01*
X152238095Y-68852438D02*
X152285714Y-68900057D01*
X152285714Y-68900057D02*
X152333333Y-68995295D01*
X152333333Y-68995295D02*
X152333333Y-69138152D01*
X152333333Y-69138152D02*
X152285714Y-69233390D01*
X152285714Y-69233390D02*
X152238095Y-69281009D01*
X152238095Y-69281009D02*
X152142857Y-69328628D01*
X152142857Y-69328628D02*
X151761905Y-69328628D01*
X152666667Y-68804819D02*
X153333333Y-68804819D01*
X153333333Y-68804819D02*
X152904762Y-69804819D01*
X142333333Y-85034819D02*
X142000000Y-84558628D01*
X141761905Y-85034819D02*
X141761905Y-84034819D01*
X141761905Y-84034819D02*
X142142857Y-84034819D01*
X142142857Y-84034819D02*
X142238095Y-84082438D01*
X142238095Y-84082438D02*
X142285714Y-84130057D01*
X142285714Y-84130057D02*
X142333333Y-84225295D01*
X142333333Y-84225295D02*
X142333333Y-84368152D01*
X142333333Y-84368152D02*
X142285714Y-84463390D01*
X142285714Y-84463390D02*
X142238095Y-84511009D01*
X142238095Y-84511009D02*
X142142857Y-84558628D01*
X142142857Y-84558628D02*
X141761905Y-84558628D01*
X142666667Y-84034819D02*
X143285714Y-84034819D01*
X143285714Y-84034819D02*
X142952381Y-84415771D01*
X142952381Y-84415771D02*
X143095238Y-84415771D01*
X143095238Y-84415771D02*
X143190476Y-84463390D01*
X143190476Y-84463390D02*
X143238095Y-84511009D01*
X143238095Y-84511009D02*
X143285714Y-84606247D01*
X143285714Y-84606247D02*
X143285714Y-84844342D01*
X143285714Y-84844342D02*
X143238095Y-84939580D01*
X143238095Y-84939580D02*
X143190476Y-84987200D01*
X143190476Y-84987200D02*
X143095238Y-85034819D01*
X143095238Y-85034819D02*
X142809524Y-85034819D01*
X142809524Y-85034819D02*
X142714286Y-84987200D01*
X142714286Y-84987200D02*
X142666667Y-84939580D01*
%TO.C,R4*%
D11*
X139630000Y-89650000D02*
X140580000Y-89650000D01*
X145370000Y-89650000D02*
X144420000Y-89650000D01*
X140580000Y-88730000D02*
X144420000Y-88730000D01*
X144420000Y-90570000D01*
X140580000Y-90570000D01*
X140580000Y-88730000D01*
%TO.C,Q1*%
X134500000Y-86760000D02*
G75*
G02*
X136338478Y-91198478I0J-2600000D01*
G01*
X132661522Y-91198478D02*
G75*
G02*
X134500000Y-86759999I1838478J1838478D01*
G01*
X132700000Y-91210000D02*
X136300000Y-91210000D01*
%TO.C,U1*%
X136855000Y-72360000D02*
X136855000Y-82640000D01*
X136855000Y-82640000D02*
X142155000Y-82640000D01*
X138505000Y-72360000D02*
X136855000Y-72360000D01*
X142155000Y-72360000D02*
X140505000Y-72360000D01*
X142155000Y-82640000D02*
X142155000Y-72360000D01*
X140505000Y-72360000D02*
G75*
G02*
X138505000Y-72360000I-1000000J0D01*
G01*
%TO.C,R1*%
X126630000Y-79000000D02*
X127580000Y-79000000D01*
X132370000Y-79000000D02*
X131420000Y-79000000D01*
X127580000Y-78080000D02*
X131420000Y-78080000D01*
X131420000Y-79920000D01*
X127580000Y-79920000D01*
X127580000Y-78080000D01*
%TO.C,D1*%
X148440000Y-86955000D02*
X148440000Y-90045000D01*
X148440000Y-86955170D02*
G75*
G02*
X153990000Y-88500000I2560000J-1544830D01*
G01*
X153990000Y-88500000D02*
G75*
G02*
X148440000Y-90044830I-2990000J0D01*
G01*
X153500000Y-88500000D02*
G75*
G02*
X148500000Y-88500000I-2500000J0D01*
G01*
X148500000Y-88500000D02*
G75*
G02*
X153500000Y-88500000I2500000J0D01*
G01*
%TO.C,R5*%
X126630000Y-83500000D02*
X127580000Y-83500000D01*
X132370000Y-83500000D02*
X131420000Y-83500000D01*
X127580000Y-82580000D02*
X131420000Y-82580000D01*
X131420000Y-84420000D01*
X127580000Y-84420000D01*
X127580000Y-82580000D01*
%TO.C,R6*%
X122450000Y-70850000D02*
X125500000Y-70850000D01*
X122450000Y-75150000D02*
X125500000Y-75150000D01*
X122450000Y-75150000D02*
G75*
G02*
X122471766Y-70834475I1550000J2150000D01*
G01*
X125500000Y-70850000D02*
G75*
G02*
X125544513Y-75118249I-1500000J-2150000D01*
G01*
%TO.C,R7*%
X147330000Y-71979000D02*
X147330000Y-73300000D01*
X147330000Y-71979000D02*
X151267000Y-71979000D01*
X147330000Y-75750000D02*
X147330000Y-76130000D01*
X147330000Y-77871000D02*
X147330000Y-78630000D01*
X147330000Y-80370000D02*
X147330000Y-82020000D01*
X147330000Y-82020000D02*
X151267000Y-82020000D01*
X155634000Y-71979000D02*
X159570000Y-71979000D01*
X155634000Y-82020000D02*
X159570000Y-82020000D01*
X159570000Y-71979000D02*
X159570000Y-82020000D01*
%TO.C,R3*%
X139630000Y-86500000D02*
X140580000Y-86500000D01*
X145370000Y-86500000D02*
X144420000Y-86500000D01*
X140580000Y-85580000D02*
X144420000Y-85580000D01*
X144420000Y-87420000D01*
X140580000Y-87420000D01*
X140580000Y-85580000D01*
%TD*%
M02*
