M48
; DRILL file KiCad 10.0.0 date 2026-07-01T11:35:05
; FORMAT={-:-/ absolute / metric / decimal}
; #@! TF.CreationDate,2026-07-01T11:35:05+05:30
; #@! TF.GenerationSoftware,Kicad,Pcbnew,10.0.0
; #@! TF.FileFunction,Plated,1,2,PTH
FMAT,2
METRIC
; #@! TA.AperFunction,Plated,PTH,ComponentDrill
T1C0.700
; #@! TA.AperFunction,Plated,PTH,ComponentDrill
T2C0.750
; #@! TA.AperFunction,Plated,PTH,ComponentDrill
T3C0.800
; #@! TA.AperFunction,Plated,PTH,ComponentDrill
T4C0.900
; #@! TA.AperFunction,Plated,PTH,ComponentDrill
T5C1.000
; #@! TA.AperFunction,Plated,PTH,ComponentDrill
T6C1.800
%
G90
G05
T1
X125.69Y-79.0
X125.69Y-83.5
X133.31Y-79.0
X133.31Y-83.5
X138.69Y-86.5
X138.69Y-89.65
X146.31Y-86.5
X146.31Y-89.65
T2
X133.23Y-89.36
X134.5Y-89.36
X135.77Y-89.36
T3
X122.3Y-73.0
X125.7Y-73.0
X135.695Y-73.69
X135.695Y-76.23
X135.695Y-78.77
X135.695Y-81.31
X143.315Y-73.69
X143.315Y-76.23
X143.315Y-78.77
X143.315Y-81.31
T4
X149.73Y-88.5
X152.27Y-88.5
T5
X146.45Y-74.5
X146.45Y-77.0
X146.45Y-79.5
T6
G00X153.3Y-72.6
M15
G01X153.6Y-72.6
M16
G05
G00X153.3Y-81.4
M15
G01X153.6Y-81.4
M16
G05
M30
